<svg xmlns="http://www.w3.org/2000/svg" xmlns:xlink="http://www.w3.org/1999/xlink" version="1.1" width="375pt" height="375pt" viewBox="0 0 375 375">
<defs>
<clipPath id="clip_0">
<path transform="matrix(.24,0,0,.24,0,0)" d="M0 0H1562.5V1562.5H0Z" fill-rule="evenodd"/>
</clipPath>
<clipPath id="clip_1">
<path transform="matrix(.24,0,0,.24,0,0)" d="M0 0H1562.5V1562.5H0Z" fill-rule="evenodd"/>
</clipPath>
<clipPath id="clip_2">
<path transform="matrix(.24,0,0,.24,0,0)" d="M.00000000000017763569 .00000000000026645353H1562.5V1562.5H.00000000000017763569Z" fill-rule="evenodd"/>
</clipPath>
<clipPath id="clip_3">
<path transform="matrix(.24,0,0,.24,0,0)" d="M0 0H1562.5V1593.75H0Z"/>
</clipPath>
<clipPath id="clip_4">
<path transform="matrix(.24,0,0,.24,0,0)" d="M0 0H1562.5V1562.5H0Z"/>
</clipPath>
<clipPath id="clip_5">
<path transform="matrix(.24,0,0,.24,0,0)" d="M0 0H1562.5V1562.5H0Z"/>
</clipPath>
<clipPath id="clip_6">
<path transform="matrix(.24,0,0,.24,0,0)" d="M159.10657 533.77719H1403.3934V1406.25H159.10657Z"/>
</clipPath>
<clipPath id="clip_7">
<path transform="matrix(.24,0,0,.24,0,0)" d="M781.25 533.77719C437.64967 533.77719 159.10657 729.08688 159.10657 970.01358 159.10657 1210.9402 437.64967 1406.25 781.25 1406.25 1124.8504 1406.25 1403.3934 1210.9402 1403.3934 970.01358 1403.3934 729.08688 1124.8504 533.77719 781.25 533.77719Z"/>
</clipPath>
<clipPath id="clip_8">
<path transform="matrix(.24,0,0,.24,0,0)" d="M0 0H1562.5V1593.75H0Z"/>
</clipPath>
<clipPath id="clip_9">
<path transform="matrix(.24,0,0,.24,0,0)" d="M0 0H1562.5V1562.5H0Z"/>
</clipPath>
<clipPath id="clip_10">
<path transform="matrix(.24,0,0,.24,0,0)" d="M0 0H1562.5V1562.5H0Z"/>
</clipPath>
<clipPath id="clip_11">
<path transform="matrix(.24,0,0,.24,0,0)" d="M124.31207 325.25325H672.7529V1276.9507H124.31207Z"/>
</clipPath>
<clipPath id="clip_12">
<path transform="matrix(.24,0,0,.24,0,0)" d="M672.7529 801.102C672.7529 538.298 549.9803 325.25325 398.5325 325.25325 247.08475 325.25325 124.31207 538.298 124.31207 801.102 124.31207 1063.906 247.08475 1276.9507 398.5325 1276.9507 549.9803 1276.9507 672.7529 1063.906 672.7529 801.102Z"/>
</clipPath>
<clipPath id="clip_13">
<path transform="matrix(.24,0,0,.24,0,0)" d="M0 0H1562.5V1593.75H0Z"/>
</clipPath>
<clipPath id="clip_14">
<path transform="matrix(.24,0,0,.24,0,0)" d="M0 0H1562.5V1562.5H0Z"/>
</clipPath>
<clipPath id="clip_15">
<path transform="matrix(.24,0,0,.24,0,0)" d="M0 0H1562.5V1562.5H0Z"/>
</clipPath>
<clipPath id="clip_16">
<path transform="matrix(.24,0,0,.24,0,0)" d="M889.70248 325.25325H1438.1433V1276.9507H889.70248Z"/>
</clipPath>
<clipPath id="clip_17">
<path transform="matrix(.24,0,0,.24,0,0)" d="M1438.1433 801.102C1438.1433 538.298 1315.3706 325.25325 1163.9229 325.25325 1012.4751 325.25325 889.70248 538.298 889.70248 801.102 889.70248 1063.906 1012.4751 1276.9507 1163.9229 1276.9507 1315.3706 1276.9507 1438.1433 1063.906 1438.1433 801.102Z"/>
</clipPath>
<clipPath id="clip_18">
<path transform="matrix(.24,0,0,.24,0,0)" d="M0 0H1562.5V1593.75H0Z"/>
</clipPath>
<clipPath id="clip_19">
<path transform="matrix(.24,0,0,.24,0,0)" d="M0 0H1562.5V1562.5H0Z"/>
</clipPath>
<clipPath id="clip_20">
<path transform="matrix(.24,0,0,.24,0,0)" d="M0 0H1562.5V1562.5H0Z"/>
</clipPath>
<clipPath id="clip_21">
<path transform="matrix(.24,0,0,.24,0,0)" d="M717.12179 934.4484H845.3783V1176.6549H717.12179Z"/>
</clipPath>
<clipPath id="clip_22">
<path transform="matrix(.24,0,0,.24,0,0)" d="M781.25 934.4484C745.83297 934.4484 717.12179 988.6682 717.12179 1055.5516 717.12179 1122.4352 745.83297 1176.6549 781.25 1176.6549 816.6671 1176.6549 845.3783 1122.4352 845.3783 1055.5516 845.3783 988.6682 816.6671 934.4484 781.25 934.4484Z"/>
</clipPath>
<clipPath id="clip_23">
<path transform="matrix(.24,0,0,.24,0,0)" d="M0 0H1562.5V1562.5H0Z" fill-rule="evenodd"/>
</clipPath>
<clipPath id="clip_24">
<path transform="matrix(.24,0,0,.24,165.36,196.56)" d="M0 0H57V68H0Z" fill-rule="evenodd"/>
</clipPath>
<clipPath id="clip_25">
<path transform="matrix(.24,0,0,.24,165.36,196.56)" d="M.093444827 13.081482 17.848828 .54940989 56.157674 54.82521 38.40229 67.357288 .093444827 13.081482Z"/>
</clipPath>
<clipPath id="clip_26">
<path transform="matrix(.24,0,0,.24,165.36,196.56)" d="M8.971136 6.815446C4.068123 10.276082 8.669172 25.231534 19.247868 40.219385 29.826563 55.20723 42.37697 64.55188 47.279985 61.091249 52.182996 57.63061 47.581949 42.675157 37.00325 27.687312 26.424555 12.699462 13.874149 3.3548098 8.971136 6.815446Z"/>
</clipPath>
<clipPath id="clip_27">
<path transform="matrix(.24,0,0,.24,196.08,196.56)" d="M0 0H57V68H0Z"/>
</clipPath>
<clipPath id="clip_28">
<path transform="matrix(.24,0,0,.24,196.08,196.56)" d="M38.502504 .5494385 56.313444 13.002423 18.246354 67.44806 .43541337 54.99507 38.502504 .5494385Z"/>
</clipPath>
<clipPath id="clip_29">
<path transform="matrix(.24,0,0,.24,196.08,196.56)" d="M47.407976 6.775931C42.489618 3.3371342 29.980895 12.737509 19.468958 27.772255 8.957022 42.807 4.4225275 57.78277 9.340883 61.221567 14.259239 64.66036 26.767962 55.259984 37.2799 40.22524 47.791833 25.190495 52.32633 10.214727 47.407976 6.775931Z"/>
</clipPath>
<clipPath id="clip_30">
<path transform="matrix(.24,0,0,.24,0,0)" d="M0 0H1562.5V1593.75H0Z"/>
</clipPath>
<clipPath id="clip_31">
<path transform="matrix(.24,0,0,.24,0,0)" d="M0 0H1562.5V1562.5H0Z"/>
</clipPath>
<clipPath id="clip_32">
<path transform="matrix(.24,0,0,.24,0,0)" d="M0 0H1562.5V1562.5H0Z"/>
</clipPath>
<clipPath id="clip_33">
<path transform="matrix(.24,0,0,.24,0,0)" d="M241.26082 454.20735H555.8489V721.60189H241.26082Z"/>
</clipPath>
<clipPath id="clip_34">
<path transform="matrix(.24,0,0,.24,0,0)" d="M346.18019 462.03556C362.25624 457.30909 380.64393 454.20735 398.63957 454.20735 416.6358 454.20735 433.95268 456.86598 449.91078 461.59248 450.25077 461.74024 450.59016 461.74024 450.92955 461.88789 510.8592 480.7939 555.0001 530.7175 555.8489 587.5884V721.60189H241.26082V587.68789C242.10968 530.4225 285.5714 480.49848 346.18019 462.03556Z"/>
</clipPath>
<clipPath id="clip_35">
<path transform="matrix(.24,0,0,.24,0,0)" d="M0 0H1562.5V1593.75H0Z"/>
</clipPath>
<clipPath id="clip_36">
<path transform="matrix(.24,0,0,.24,0,0)" d="M0 0H1562.5V1562.5H0Z"/>
</clipPath>
<clipPath id="clip_37">
<path transform="matrix(.24,0,0,.24,0,0)" d="M0 0H1562.5V1562.5H0Z"/>
</clipPath>
<clipPath id="clip_38">
<path transform="matrix(.24,0,0,.24,0,0)" d="M1006.6512 454.20735H1321.2393V721.60189H1006.6512Z"/>
</clipPath>
<clipPath id="clip_39">
<path transform="matrix(.24,0,0,.24,0,0)" d="M1111.5706 462.03556C1127.6466 457.30909 1146.0343 454.20735 1164.0299 454.20735 1182.0261 454.20735 1199.343 456.86598 1215.3012 461.59248 1215.6411 461.74024 1215.9805 461.74024 1216.32 461.88789 1276.2495 480.7939 1320.3905 530.7175 1321.2393 587.5884V721.60189H1006.6512V587.68789C1007.50009 530.4225 1050.9618 480.49848 1111.5706 462.03556Z"/>
</clipPath>
<clipPath id="clip_40">
<path transform="matrix(.24,0,0,.24,0,0)" d="M0 0H1562.5V1593.75H0Z"/>
</clipPath>
<clipPath id="clip_41">
<path transform="matrix(.24,0,0,.24,0,0)" d="M0 0H1562.5V1562.5H0Z"/>
</clipPath>
<clipPath id="clip_42">
<path transform="matrix(.24,0,0,.24,0,0)" d="M0 0H1562.5V1562.5H0Z"/>
</clipPath>
<clipPath id="clip_43">
<path transform="matrix(.24,0,0,.24,0,0)" d="M347.07905 470.07746H560.19546V721.6018H347.07905Z"/>
</clipPath>
<clipPath id="clip_44">
<path transform="matrix(.24,0,0,.24,0,0)" d="M418.15623 477.90568C429.04689 473.1792 441.50355 470.07746 453.6946 470.07746 465.88609 470.07746 477.6173 472.73609 488.42805 477.4626 488.6584 477.61036 488.8883 477.61036 489.11824 477.758 529.7173 496.66404 559.6204 546.58767 560.19546 603.10598V721.6018H347.07905V603.194C347.65409 546.2926 377.09706 496.3686 418.15623 477.90568Z"/>
</clipPath>
<clipPath id="clip_45">
<path transform="matrix(.24,0,0,.24,0,0)" d="M0 0H1562.5V1593.75H0Z"/>
</clipPath>
<clipPath id="clip_46">
<path transform="matrix(.24,0,0,.24,0,0)" d="M0 0H1562.5V1562.5H0Z"/>
</clipPath>
<clipPath id="clip_47">
<path transform="matrix(.24,0,0,.24,0,0)" d="M0 0H1562.5V1562.5H0Z"/>
</clipPath>
<clipPath id="clip_48">
<path transform="matrix(.24,0,0,.24,0,0)" d="M1112.4694 470.07746H1325.5857V721.6018H1112.4694Z"/>
</clipPath>
<clipPath id="clip_49">
<path transform="matrix(.24,0,0,.24,0,0)" d="M1183.5465 477.90568C1194.4373 473.1792 1206.8938 470.07746 1219.085 470.07746 1231.2764 470.07746 1243.0077 472.73609 1253.8184 477.4626 1254.0487 477.61036 1254.2787 477.61036 1254.5086 477.758 1295.1077 496.66404 1325.0108 546.58767 1325.5857 603.10598V721.6018H1112.4694V603.194C1113.0444 546.2926 1142.4874 496.3686 1183.5465 477.90568Z"/>
</clipPath>
<clipPath id="clip_50">
<path transform="matrix(.24,0,0,.24,0,0)" d="M0 0H1562.5V1593.75H0Z"/>
</clipPath>
<clipPath id="clip_51">
<path transform="matrix(.24,0,0,.24,0,0)" d="M0 0H1562.5V1562.5H0Z"/>
</clipPath>
<clipPath id="clip_52">
<path transform="matrix(.24,0,0,.24,0,0)" d="M0 0H1562.5V1562.5H0Z"/>
</clipPath>
<clipPath id="clip_53">
<path transform="matrix(.24,0,0,.24,0,0)" d="M1356.2395 344.11619 1231.223 210.84792 1387.4673 64.277988 1512.4838 197.54627 1356.2395 344.11619Z"/>
</clipPath>
<clipPath id="clip_54">
<path transform="matrix(.24,0,0,.24,0,0)" d="M1293.7312 277.48207 1387.4673 64.277988 1512.4838 197.54627 1293.7312 277.48207Z"/>
</clipPath>
<clipPath id="clip_55">
<path transform="matrix(.24,0,0,.24,0,0)" d="M0 0H1562.5V1593.75H0Z"/>
</clipPath>
<clipPath id="clip_56">
<path transform="matrix(.24,0,0,.24,0,0)" d="M0 0H1562.5V1562.5H0Z"/>
</clipPath>
<clipPath id="clip_57">
<path transform="matrix(.24,0,0,.24,0,0)" d="M0 0H1562.5V1562.5H0Z"/>
</clipPath>
<clipPath id="clip_58">
<path transform="matrix(.24,0,0,.24,0,0)" d="M1337.3219 427.7626 1352.3106 289.00856 1485.3862 303.38377 1470.3976 442.13783 1337.3219 427.7626Z"/>
</clipPath>
<clipPath id="clip_59">
<path transform="matrix(.24,0,0,.24,0,0)" d="M1344.8162 358.38557 1485.3862 303.38377 1470.3976 442.13783 1344.8162 358.38557Z"/>
</clipPath>
</defs>
<g>
<g clip-path="url(#clip_0)">
<path transform="matrix(.75,0,0,.75,0,0)" d="M0 0H500V500H0Z" fill="#ffffff"/>
</g>
<g clip-path="url(#clip_1)">
<path transform="matrix(.75,0,0,.75,0,0)" d="M0 0H500V500H0Z" fill="#ffffff"/>
</g>
<g clip-path="url(#clip_2)">
<path transform="matrix(1.4648438,0,0,1.4648438,.000000000000042632565,.000000000000063948849)" d="M0 0H256V256H0Z" fill="#dbd669"/>
</g>
<g clip-path="url(#clip_3)">
<g clip-path="url(#clip_4)">
<g clip-path="url(#clip_5)">
<g clip-path="url(#clip_6)">
<g clip-path="url(#clip_7)">
<path transform="matrix(1.1665189,0,0,.8179432,38.185575,128.10652)" d="M0 0H256V256H0Z" fill="#73b090"/>
</g>
</g>
</g>
</g>
</g>
<g clip-path="url(#clip_8)">
<g clip-path="url(#clip_9)">
<g clip-path="url(#clip_10)">
<g clip-path="url(#clip_11)">
<g clip-path="url(#clip_12)">
<path transform="matrix(0,.8922164,-.5141633,0,161.4607,78.060779)" d="M0 0H256V256H0Z" fill="#73b090"/>
</g>
</g>
</g>
</g>
</g>
<g clip-path="url(#clip_13)">
<g clip-path="url(#clip_14)">
<g clip-path="url(#clip_15)">
<g clip-path="url(#clip_16)">
<g clip-path="url(#clip_17)">
<path transform="matrix(0,.8922164,-.5141633,0,345.1544,78.060779)" d="M0 0H256V256H0Z" fill="#73b090"/>
</g>
</g>
</g>
</g>
</g>
<g clip-path="url(#clip_18)">
<g clip-path="url(#clip_19)">
<g clip-path="url(#clip_20)">
<g clip-path="url(#clip_21)">
<g clip-path="url(#clip_22)">
<path transform="matrix(.120240498,0,0,.22706859,172.10923,224.26763)" d="M0 0H256V256H0Z" fill="#263134"/>
</g>
</g>
</g>
</g>
</g>
<g clip-path="url(#clip_23)">
<g opacity=".5">
<g clip-path="url(#clip_24)">
<g clip-path="url(#clip_25)">
<g clip-path="url(#clip_26)">
<path transform="matrix(.01664567,-.011748818,.03591454,.050883566,165.38243,199.69956)" d="M0 0H256V256H0Z" fill="#263134"/>
</g>
</g>
</g>
</g>
<g opacity=".5">
<g clip-path="url(#clip_27)">
<g clip-path="url(#clip_28)">
<g clip-path="url(#clip_29)">
<path transform="matrix(.016697756,.011674673,-.035687895,.05104278,205.3206,196.69187)" d="M0 0H256V256H0Z" fill="#263134"/>
</g>
</g>
</g>
</g>
</g>
<g clip-path="url(#clip_30)">
<g clip-path="url(#clip_31)">
<g clip-path="url(#clip_32)">
<g clip-path="url(#clip_33)">
<g clip-path="url(#clip_34)">
<path transform="matrix(.29492633,0,0,.25068236,57.902597,109.00976)" d="M0 0H256V256H0Z" fill="#ffffff"/>
</g>
</g>
</g>
</g>
</g>
<g clip-path="url(#clip_35)">
<g clip-path="url(#clip_36)">
<g clip-path="url(#clip_37)">
<g clip-path="url(#clip_38)">
<g clip-path="url(#clip_39)">
<path transform="matrix(.29492633,0,0,.25068236,241.59629,109.00976)" d="M0 0H256V256H0Z" fill="#ffffff"/>
</g>
</g>
</g>
</g>
</g>
<g clip-path="url(#clip_40)">
<g clip-path="url(#clip_41)">
<g clip-path="url(#clip_42)">
<g clip-path="url(#clip_43)">
<g clip-path="url(#clip_44)">
<path transform="matrix(.19979659,0,0,.23580408,83.298969,112.81859)" d="M0 0H256V256H0Z" fill="#263134"/>
</g>
</g>
</g>
</g>
</g>
<g clip-path="url(#clip_45)">
<g clip-path="url(#clip_46)">
<g clip-path="url(#clip_47)">
<g clip-path="url(#clip_48)">
<g clip-path="url(#clip_49)">
<path transform="matrix(.19979659,0,0,.23580408,266.99266,112.81859)" d="M0 0H256V256H0Z" fill="#263134"/>
</g>
</g>
</g>
</g>
</g>
<g clip-path="url(#clip_50)">
<g clip-path="url(#clip_51)">
<g clip-path="url(#clip_52)">
<g clip-path="url(#clip_53)">
<g clip-path="url(#clip_54)">
<path transform="matrix(-.117203,-.124938998,.14647901,-.1374093,325.49748,82.58788)" d="M0 0H256V256H0Z" fill="#ffffff"/>
</g>
</g>
</g>
</g>
</g>
<g clip-path="url(#clip_55)">
<g clip-path="url(#clip_56)">
<g clip-path="url(#clip_57)">
<g clip-path="url(#clip_58)">
<g clip-path="url(#clip_59)">
<path transform="matrix(.01405184,-.13008194,.12475841,.013476777,320.95726,102.663028)" d="M0 0H256V256H0Z" fill="#ffffff"/>
</g>
</g>
</g>
</g>
</g>
</g>
</svg>
